<svg width="1181" height="354" viewBox="0 0 1181 354" fill="none" xmlns="http://www.w3.org/2000/svg">
<circle cx="46" cy="122" r="10" fill="#FB5A48"/>
<circle cx="198" cy="152" r="10" fill="#FB5A48"/>
<circle cx="290" cy="92" r="10" fill="#FB5A48"/>
<circle cx="470" cy="92" r="10" fill="#FB5A48"/>
<circle cx="547" cy="82" r="10" fill="#FB5A48"/>
<circle cx="583" cy="157" r="10" fill="#FB5A48"/>
<circle cx="657" cy="102" r="10" fill="#FB5A48"/>
<circle cx="747" cy="197" r="10" fill="#FB5A48"/>
<circle cx="880" cy="72" r="10" fill="#FB5A48"/>
<circle cx="900" cy="167" r="10" fill="#FB5A48"/>
<circle cx="982" cy="102" r="10" fill="#FB5A48"/>
<circle cx="1002" cy="207" r="10" fill="#FB5A48"/>
<circle cx="807" cy="260" r="10" fill="#FB5A48"/>
<circle cx="647" cy="230" r="10" fill="#FB5A48"/>
<circle cx="591" cy="240" r="10" fill="#FB5A48"/>
<circle cx="450" cy="197" r="10" fill="#FB5A48"/>
<circle cx="375" cy="250" r="10" fill="#FB5A48"/>
<circle cx="248" cy="240" r="10" fill="#FB5A48"/>
<circle cx="142" cy="270" r="10" fill="#FB5A48"/>
<line x1="46.2811" y1="121.527" x2="198.281" y2="150.527" stroke="#FB5A48" stroke-width="3"/>
<line x1="197.181" y1="150.744" x2="289.181" y2="90.7436" stroke="#FB5A48" stroke-width="3"/>
<line x1="291.008" y1="89.5" x2="470.008" y2="90.4782" stroke="#FB5A48" stroke-width="3"/>
<line x1="468.828" y1="89.5099" x2="546.828" y2="80.5099" stroke="#FB5A48" stroke-width="3"/>
<line x1="582.105" y1="155.796" x2="656.105" y2="100.796" stroke="#FB5A48" stroke-width="3"/>
<line x1="547.281" y1="79.5266" x2="657.281" y2="100.527" stroke="#FB5A48" stroke-width="3"/>
<line x1="548.356" y1="80.3579" x2="584.356" y2="156.358" stroke="#FB5A48" stroke-width="3"/>
<line x1="649.806" y1="100.513" x2="879.806" y2="70.5126" stroke="#FB5A48" stroke-width="3"/>
<line x1="658.089" y1="100.968" x2="748.089" y2="195.968" stroke="#FB5A48" stroke-width="3"/>
<line x1="881.468" y1="70.6941" x2="901.468" y2="166.694" stroke="#FB5A48" stroke-width="3"/>
<line x1="880.423" y1="70.561" x2="982.423" y2="100.561" stroke="#FB5A48" stroke-width="3"/>
<line x1="983.474" y1="101.719" x2="1003.47" y2="206.719" stroke="#FB5A48" stroke-width="3"/>
<line x1="899.068" y1="165.825" x2="981.068" y2="100.825" stroke="#FB5A48" stroke-width="3"/>
<line x1="746.711" y1="195.528" x2="899.711" y2="165.528" stroke="#FB5A48" stroke-width="3"/>
<line x1="900.548" y1="165.604" x2="1002.55" y2="205.604" stroke="#FB5A48" stroke-width="3"/>
<line x1="805.939" y1="258.939" x2="898.939" y2="165.939" stroke="#FB5A48" stroke-width="3"/>
<line x1="748.078" y1="196.957" x2="808.078" y2="258.957" stroke="#FB5A48" stroke-width="3"/>
<line x1="647.276" y1="228.526" x2="807.276" y2="258.526" stroke="#FB5A48" stroke-width="3"/>
<line x1="806.607" y1="258.553" x2="1001.61" y2="205.553" stroke="#FB5A48" stroke-width="3"/>
<line x1="248.118" y1="238.505" x2="375.118" y2="248.505" stroke="#FB5A48" stroke-width="3"/>
<line x1="141.599" y1="268.555" x2="249.599" y2="238.555" stroke="#FB5A48" stroke-width="3"/>
<line x1="47.2634" y1="122.191" x2="143.263" y2="272.191" stroke="#FB5A48" stroke-width="3"/>
<line x1="199.297" y1="153.246" x2="249.297" y2="239.246" stroke="#FB5A48" stroke-width="3"/>
<line x1="289.825" y1="90.7472" x2="450.825" y2="196.747" stroke="#FB5A48" stroke-width="3"/>
<line x1="292.324" y1="91.2959" x2="376.324" y2="249.296" stroke="#FB5A48" stroke-width="3"/>
<line x1="374.145" y1="248.767" x2="449.145" y2="196.767" stroke="#FB5A48" stroke-width="3"/>
<line x1="658.495" y1="102.117" x2="648.495" y2="230.117" stroke="#FB5A48" stroke-width="3"/>
<line x1="584.493" y1="156.856" x2="592.493" y2="239.856" stroke="#FB5A48" stroke-width="3"/>
<line x1="450.438" y1="195.565" x2="591.438" y2="238.565" stroke="#FB5A48" stroke-width="3"/>
<line x1="449.568" y1="195.564" x2="582.568" y2="155.564" stroke="#FB5A48" stroke-width="3"/>
<line x1="449.524" y1="196.733" x2="468.524" y2="91.7329" stroke="#FB5A48" stroke-width="3"/>
<line x1="590.736" y1="238.523" x2="646.736" y2="228.523" stroke="#FB5A48" stroke-width="3"/>
<line x1="646.53" y1="228.576" x2="746.53" y2="195.576" stroke="#FB5A48" stroke-width="3"/>
</svg>
